<svg id="Layer_1" height="512" viewBox="0 0 512 512" width="512" xmlns="http://www.w3.org/2000/svg" data-name="Layer 1"><path d="m256.036 276.388a24.525 24.525 0 1 0 24.525 24.525 24.553 24.553 0 0 0 -24.525-24.525zm0 37.049a12.525 12.525 0 1 1 12.525-12.524 12.539 12.539 0 0 1 -12.525 12.524z"/><path d="m256.036 186.728a24.524 24.524 0 1 0 24.525 24.524 24.552 24.552 0 0 0 -24.525-24.524zm0 37.048a12.524 12.524 0 1 1 12.525-12.524 12.538 12.538 0 0 1 -12.525 12.524z"/><path d="m66.071 376.689a24.525 24.525 0 1 0 24.529 24.524 24.552 24.552 0 0 0 -24.529-24.524zm0 37.049a12.525 12.525 0 1 1 12.529-12.525 12.539 12.539 0 0 1 -12.529 12.525z"/><path d="m155.731 376.689a24.525 24.525 0 1 0 24.525 24.524 24.552 24.552 0 0 0 -24.525-24.524zm0 37.049a12.525 12.525 0 1 1 12.525-12.525 12.539 12.539 0 0 1 -12.525 12.525z"/><path d="m356.269 86.259a24.525 24.525 0 1 0 24.524 24.524 24.552 24.552 0 0 0 -24.524-24.524zm0 37.049a12.525 12.525 0 1 1 12.524-12.525 12.539 12.539 0 0 1 -12.524 12.525z"/><path d="m501.947 108.424a56.059 56.059 0 0 0 -89.957-42.26 18.083 18.083 0 0 1 -21.783-.006 56.25 56.25 0 0 0 -89.546 37.442l-52.085 52.086a56.05 56.05 0 0 0 -37.628 88.887 19.327 19.327 0 0 1 -.041 23.067 56.28 56.28 0 0 0 -10.9 35.276l-42.272 42.271a55.679 55.679 0 0 0 -35.322 10.942 19.328 19.328 0 0 1 -23.069-.042 56.3 56.3 0 0 0 -35.395-10.9 56.074 56.074 0 0 0 .239 112.059q.978.035 1.953.035a55.943 55.943 0 0 0 33.859-11.431 18.083 18.083 0 0 1 21.777-.025 56.226 56.226 0 0 0 89.553-37.417l51.89-51.889a56.066 56.066 0 0 0 37.45-89.534 18.078 18.078 0 0 1 -.025-21.777 56.063 56.063 0 0 0 11.426-35.88c0-.1-.013-.2-.017-.3l42.212-42.212c.659.024 1.316.038 1.974.038a56.35 56.35 0 0 0 33.339-10.969 19.328 19.328 0 0 1 23.06.01 56.061 56.061 0 0 0 89.319-47.278c-.003-.066-.007-.129-.011-.193zm-302.17 294.292c0 .071-.008.142-.011.213-.842 22.588-19.912 41.576-42.521 42.329a44.028 44.028 0 0 1 -28.206-8.986 30.133 30.133 0 0 0 -36.31.031 43.957 43.957 0 0 1 -28.129 8.955c-22.643-.748-41.737-19.748-42.563-42.364a44.072 44.072 0 0 1 42.363-45.711c.551-.021 1.1-.031 1.65-.031a44.216 44.216 0 0 1 26.131 8.566 31.367 31.367 0 0 0 37.386.043 44.06 44.06 0 0 1 61.618 9.274 44.228 44.228 0 0 1 8.592 27.681zm11.215-10.94a56.256 56.256 0 0 0 -10.151-23.869 55.643 55.643 0 0 0 -28.575-20.281l30.2-30.2a56.238 56.238 0 0 0 44.134 38.748zm80.1-153.832a30.13 30.13 0 0 0 .031 36.311 43.911 43.911 0 0 1 8.955 28.133c-.748 22.643-19.749 41.737-42.365 42.563-.569.022-1.134.032-1.7.032a44.069 44.069 0 0 1 -35.476-70.183 31.366 31.366 0 0 0 .043-37.385 44.061 44.061 0 0 1 35.466-70.234q.757 0 1.516.026c.062 0 .124.008.186.01 22.588.841 41.576 19.91 42.329 42.521a44.044 44.044 0 0 1 -8.986 28.206zm18.438-43.364a56.744 56.744 0 0 0 -44.261-38.616l35.725-35.725a56.132 56.132 0 0 0 38.745 44.132zm171.856-57.616a44.1 44.1 0 0 1 -61.59 9.3 31.364 31.364 0 0 0 -37.376-.008 44.268 44.268 0 0 1 -27.829 8.567 44.069 44.069 0 0 1 -42.361-45.723c.827-22.608 19.92-41.608 42.577-42.357q.766-.027 1.533-.027a43.925 43.925 0 0 1 26.6 8.992 30.134 30.134 0 0 0 36.316.01 44.117 44.117 0 0 1 28.2-8.974c22.6.752 41.667 19.741 42.508 42.329 0 .062.006.124.01.186a44.227 44.227 0 0 1 -8.589 27.705z"/><path d="m445.93 86.259a24.525 24.525 0 1 0 24.524 24.524 24.552 24.552 0 0 0 -24.524-24.524zm0 37.049a12.525 12.525 0 1 1 12.524-12.525 12.539 12.539 0 0 1 -12.524 12.525z"/><path d="m217.567 141.029c-1.654.905-3.3 1.881-4.88 2.9a6 6 0 1 0 6.49 10.094c1.346-.866 2.742-1.695 4.148-2.463a6 6 0 0 0 -5.758-10.53z"/><path d="m205.494 156.76a6 6 0 0 0 -8.477.363 80.034 80.034 0 0 0 -11.383 92.277 6 6 0 0 0 10.547-5.725 68.029 68.029 0 0 1 9.677-78.436 6 6 0 0 0 -.364-8.479z"/></svg>